<svg xmlns="http://www.w3.org/2000/svg" width="192" height="96"><path d="M23.74 66.86L16.49 66.86L16.49 66.86Q16.99 65.52 17.98 62.50L17.98 62.50L17.98 62.50Q18.97 59.48 20.21 55.57L20.21 55.57L20.21 55.57Q21.45 51.66 22.72 47.59L22.72 47.59L22.72 47.59Q23.99 43.52 25.07 39.92L25.07 39.92L25.07 39.92Q26.15 36.33 26.88 33.94L26.88 33.94L26.88 33.94Q27.62 31.56 27.68 31.18L27.68 31.18L27.68 31.18Q27.74 30.86 28.31 30.89L28.31 30.89L28.31 30.89Q28.89 30.92 29.08 30.92L29.08 30.92L34.93 30.92L34.93 30.92Q35.06 30.92 34.71 31.40L34.71 31.40L34.71 31.40Q34.36 31.88 34.17 31.88L34.17 31.88L31.49 31.88L31.49 31.88Q30.80 31.88 30.06 31.88L30.06 31.88L30.06 31.88Q29.33 31.88 28.70 31.94L28.70 31.94L28.70 31.94Q28.25 33.40 27.39 36.11L27.39 36.11L27.39 36.11Q26.53 38.81 25.48 42.21L25.48 42.21L25.48 42.21Q24.44 45.62 23.32 49.24L23.32 49.24L23.32 49.24Q22.21 52.87 21.19 56.20L21.19 56.20L21.19 56.20Q20.17 59.54 19.38 62.09L19.38 62.09L19.38 62.09Q18.58 64.63 18.20 65.84L18.20 65.84L24.50 65.84L24.50 65.84Q24.63 65.84 24.28 66.32L24.28 66.32L24.28 66.32Q23.93 66.79 23.74 66.86L23.74 66.86Z" fill="#000000"/><path d="M85.25 72.45L85.25 72.45L85.25 72.45Q83.53 72.45 80.79 71.40L80.79 71.40L80.79 71.40Q78.06 70.36 74.82 68.67L74.82 68.67L74.82 68.67Q71.57 66.98 68.36 65.14L68.36 65.14L68.36 65.14Q65.15 63.30 62.48 61.64L62.48 61.64L62.48 61.64Q59.81 59.99 58.28 58.97L58.28 58.97L58.28 58.97Q57.58 60.50 56.37 62.72L56.37 62.72L56.37 62.72Q55.16 64.95 53.61 67.11L53.61 67.11L53.61 67.11Q52.05 69.27 50.23 70.74L50.23 70.74L50.23 70.74Q48.42 72.20 46.39 72.20L46.39 72.20L46.39 72.20Q44.35 72.20 42.67 70.61L42.67 70.61L42.67 70.61Q40.98 69.02 39.68 66.54L39.68 66.54L39.68 66.54Q38.37 64.06 37.48 61.23L37.48 61.23L37.48 61.23Q36.59 58.40 36.15 55.85L36.15 55.85L36.15 55.85Q35.70 53.31 35.70 51.66L35.70 51.66L35.70 51.66Q35.70 51.40 35.73 50.80L35.73 50.80L35.73 50.80Q35.77 50.19 35.96 49.65L35.96 49.65L35.96 49.65Q36.15 49.11 36.53 49.11L36.53 49.11L36.53 49.11Q36.97 49.11 36.97 49.65L36.97 49.65L36.97 49.65Q36.97 50.19 36.97 50.51L36.97 50.51L36.97 50.51Q36.97 52.23 37.29 54.42L37.29 54.42L37.29 54.42Q37.61 56.62 38.18 58.75L38.18 58.75L38.18 58.75Q38.75 60.88 39.45 62.47L39.45 62.47L39.45 62.47Q40.03 63.68 40.98 65.39L40.98 65.39L40.98 65.39Q41.93 67.11 43.27 68.45L43.27 68.45L43.27 68.45Q44.61 69.78 46.20 69.78L46.20 69.78L46.20 69.78Q47.79 69.78 49.28 68.32L49.28 68.32L49.28 68.32Q50.78 66.86 52.02 64.73L52.02 64.73L52.02 64.73Q53.26 62.60 54.18 60.53L54.18 60.53L54.18 60.53Q55.10 58.46 55.61 57.25L55.61 57.25L55.61 57.25Q54.59 56.62 52.78 55.50L52.78 55.50L52.78 55.50Q50.97 54.39 48.84 53.12L48.84 53.12L48.84 53.12Q46.70 51.85 44.54 50.70L44.54 50.70L44.54 50.70Q42.38 49.56 40.54 48.83L40.54 48.83L40.54 48.83Q38.69 48.10 37.55 48.10L37.55 48.10L37.55 48.10Q35.96 48.10 35.26 49.11L35.26 49.11L35.26 49.11Q34.56 50.13 34.56 51.66L34.56 51.66L34.56 51.66Q34.56 52.55 34.81 53.44L34.81 53.44L34.81 53.44Q35.07 54.33 35.07 55.22L35.07 55.22L35.07 55.22Q35.07 55.35 35.00 55.79L35.00 55.79L35.00 55.79Q34.94 56.24 34.62 56.24L34.62 56.24L34.62 56.24Q34.30 56.24 34.02 55.38L34.02 55.38L34.02 55.38Q33.73 54.52 33.60 53.57L33.60 53.57L33.60 53.57Q33.48 52.61 33.48 52.29L33.48 52.29L33.48 52.29Q33.48 50.58 34.02 49.02L34.02 49.02L34.02 49.02Q34.56 47.46 35.77 46.44L35.77 46.44L35.77 46.44Q36.97 45.42 38.82 45.42L38.82 45.42L38.82 45.42Q40.66 45.42 43.08 46.47L43.08 46.47L43.08 46.47Q45.50 47.52 48.04 49.08L48.04 49.08L48.04 49.08Q50.58 50.64 52.81 52.23L52.81 52.23L52.81 52.23Q55.04 53.82 56.56 54.90L56.56 54.90L56.56 54.90Q57.39 52.87 58.60 49.78L58.60 49.78L58.60 49.78Q59.81 46.70 61.40 43.17L61.40 43.17L61.40 43.17Q62.99 39.64 64.89 36.17L64.89 36.17L64.89 36.17Q66.80 32.70 69.03 29.84L69.03 29.84L69.03 29.84Q71.25 26.98 73.73 25.26L73.73 25.26L73.73 25.26Q76.22 23.55 78.89 23.55L78.89 23.55L78.89 23.55Q80.54 23.55 81.56 24.40L81.56 24.40L81.56 24.40Q82.58 25.26 83.08 26.73L83.08 26.73L83.08 26.73Q83.15 26.92 83.18 27.11L83.18 27.11L83.18 27.11Q83.21 27.30 83.21 27.49L83.21 27.49L83.21 27.49Q83.21 28.51 82.67 29.56L82.67 29.56L82.67 29.56Q82.13 30.61 81.43 31.31L81.43 31.31L81.43 31.31Q81.37 31.37 81.11 31.59L81.11 31.59L81.11 31.59Q80.86 31.81 80.73 31.81L80.73 31.81L80.73 31.81Q80.54 31.81 80.54 31.56L80.54 31.56L80.54 31.56Q80.54 31.05 80.73 30.57L80.73 30.57L80.73 30.57Q80.92 30.10 80.92 29.59L80.92 29.59L80.92 29.59Q80.92 27.93 79.90 26.57L79.90 26.57L79.90 26.57Q78.89 25.20 77.11 25.20L77.11 25.20L77.11 25.20Q76.66 25.20 76.18 25.33L76.18 25.33L76.18 25.33Q75.71 25.45 75.26 25.64L75.26 25.64L75.26 25.64Q73.80 26.34 72.34 28.25L72.34 28.25L72.34 28.25Q70.87 30.16 69.51 32.74L69.51 32.74L69.51 32.74Q68.14 35.31 66.93 38.01L66.93 38.01L66.93 38.01Q65.72 40.72 64.77 43.07L64.77 43.07L64.77 43.07Q63.81 45.42 63.24 46.89L63.24 46.89L63.24 46.89Q62.22 49.37 61.27 51.85L61.27 51.85L61.27 51.85Q60.32 54.33 59.23 56.81L59.23 56.81L59.23 56.81Q62.35 59.03 66.20 61.71L66.20 61.71L66.20 61.71Q70.05 64.38 74.12 66.57L74.12 66.57L74.12 66.57Q78.19 68.77 81.94 69.66L81.94 69.66L81.94 69.66Q82.70 69.85 83.53 69.85L83.53 69.85L83.53 69.85Q84.17 69.85 84.58 69.59L84.58 69.59L84.58 69.59Q84.99 69.34 84.99 68.64L84.99 68.64L84.99 68.64Q84.99 67.88 84.61 66.98L84.61 66.98L84.61 66.98Q84.23 66.09 83.82 65.36L83.82 65.36L83.82 65.36Q83.40 64.63 83.40 64.50L83.40 64.50L83.40 64.50Q83.40 64.25 83.59 64.25L83.59 64.25L83.59 64.25Q83.91 64.25 84.48 65.04L84.48 65.04L84.48 65.04Q85.06 65.84 85.69 66.98L85.69 66.98L85.69 66.98Q86.33 68.13 86.74 69.21L86.74 69.21L86.74 69.21Q87.15 70.29 87.15 70.86L87.15 70.86L87.15 70.86Q87.15 71.69 86.61 72.07L86.61 72.07L86.61 72.07Q86.07 72.45 85.25 72.45Z" fill="#000000"/><path d="M103.60 66.86L95.97 66.86L95.97 66.79L95.97 66.79Q95.97 66.67 96.29 66.25L96.29 66.25L96.29 66.25Q96.61 65.84 96.80 65.84L96.80 65.84L102.58 65.84L102.58 65.84Q102.97 64.63 103.79 62.09L103.79 62.09L103.79 62.09Q104.62 59.54 105.70 56.20L105.70 56.20L105.70 56.20Q106.78 52.87 107.96 49.24L107.96 49.24L107.96 49.24Q109.14 45.62 110.25 42.21L110.25 42.21L110.25 42.21Q111.36 38.81 112.22 36.11L112.22 36.11L112.22 36.11Q113.08 33.40 113.52 31.94L113.52 31.94L113.52 31.94Q112.89 31.88 112.12 31.88L112.12 31.88L112.12 31.88Q111.36 31.88 110.53 31.88L110.53 31.88L107.61 31.88L107.61 31.88Q107.48 31.88 107.86 31.40L107.86 31.40L107.86 31.40Q108.25 30.92 108.44 30.92L108.44 30.92L114.35 30.92L114.35 30.92Q115.11 30.92 115.05 31.18L115.05 31.18L115.05 31.18Q114.86 31.56 114.06 33.94L114.06 33.94L114.06 33.94Q113.27 36.33 112.09 39.92L112.09 39.92L112.09 39.92Q110.92 43.52 109.61 47.59L109.61 47.59L109.61 47.59Q108.31 51.66 107.07 55.57L107.07 55.57L107.07 55.57Q105.83 59.48 104.91 62.50L104.91 62.50L104.91 62.50Q103.98 65.52 103.60 66.86L103.60 66.86Z" fill="#000000"/><path d="M125.59 43.71L125.59 43.71L125.59 43.71Q125.40 43.71 125.37 43.23L125.37 43.23L125.37 43.23Q125.33 42.75 125.33 42.63L125.33 42.63L125.33 42.63Q125.33 42.44 125.40 41.80L125.40 41.80L125.40 41.80Q125.46 41.16 125.78 41.10L125.78 41.10L125.78 41.10Q126.67 40.97 127.56 40.78L127.56 40.78L127.56 40.78Q128.45 40.59 129.34 40.34L129.34 40.34L129.34 40.34Q129.47 40.27 129.72 40.27L129.72 40.27L129.72 40.27Q130.04 40.27 130.04 40.59L130.04 40.59L130.04 40.59Q130.04 41.29 129.18 42.02L129.18 42.02L129.18 42.02Q128.32 42.75 127.27 43.23L127.27 43.23L127.27 43.23Q126.22 43.71 125.59 43.71ZM120.44 64.31L120.44 64.31L120.44 64.31Q117.32 64.31 117.32 61.13L117.32 61.13L117.32 61.13Q117.32 59.80 117.73 58.40L117.73 58.40L117.73 58.40Q118.15 57.00 118.66 55.79L118.66 55.79L118.66 55.79Q119.23 54.39 119.93 53.06L119.93 53.06L119.93 53.06Q120.63 51.72 121.33 50.39L121.33 50.39L121.33 50.39Q121.65 49.81 121.93 49.21L121.93 49.21L121.93 49.21Q122.22 48.60 122.54 48.03L122.54 48.03L122.54 48.03Q122.85 47.59 123.74 47.27L123.74 47.27L123.74 47.27Q124.63 46.95 125.14 46.95L125.14 46.95L125.14 46.95Q125.21 46.95 125.14 46.98L125.14 46.98L125.14 46.98Q125.08 47.01 125.08 47.01L125.08 47.01L125.08 47.01Q125.08 47.01 125.11 47.01L125.11 47.01L125.11 47.01Q125.14 47.01 125.14 47.08L125.14 47.08L125.14 47.08Q125.27 46.95 125.46 46.95L125.46 46.95L125.46 46.95Q125.72 46.95 125.78 47.17L125.78 47.17L125.78 47.17Q125.84 47.40 125.84 47.59L125.84 47.59L125.84 47.59Q125.84 48.03 125.49 48.92L125.49 48.92L125.49 48.92Q125.14 49.81 124.67 50.61L124.67 50.61L124.67 50.61Q124.19 51.40 123.74 51.59L123.74 51.59L123.74 51.59Q123.17 52.93 122.25 54.52L122.25 54.52L122.25 54.52Q121.33 56.11 120.56 57.73L120.56 57.73L120.56 57.73Q119.80 59.35 119.80 60.88L119.80 60.88L119.80 60.88Q119.80 62.66 121.71 62.66L121.71 62.66L121.71 62.66Q122.60 62.66 123.65 62.09L123.65 62.09L123.65 62.09Q124.70 61.52 125.72 60.72L125.72 60.72L125.72 60.72Q126.73 59.93 127.46 59.35L127.46 59.35L127.46 59.35Q128.20 58.78 128.39 58.78L128.39 58.78L128.39 58.78Q128.45 58.78 128.45 58.81L128.45 58.81L128.45 58.81Q128.45 58.84 128.45 58.84L128.45 58.84L128.45 58.84Q128.45 59.10 128.26 59.38L128.26 59.38L128.26 59.38Q128.07 59.67 127.94 59.80L127.94 59.80L127.94 59.80Q127.18 60.82 125.91 61.86L125.91 61.86L125.91 61.86Q124.63 62.91 123.20 63.61L123.20 63.61L123.20 63.61Q121.77 64.31 120.44 64.31ZM126.48 65.27L126.48 65.27L126.48 65.27Q126.10 65.27 126.10 64.95L126.10 64.95L126.10 64.95Q127.81 62.02 129.09 58.94L129.09 58.94L129.09 58.94Q130.36 55.85 131.57 52.74L131.57 52.74L132.27 50.89L132.27 50.89Q132.27 50.70 131.92 50.77L131.92 50.77L131.92 50.77Q131.57 50.83 131.57 50.58L131.57 50.58L131.57 50.58Q131.57 50.45 132.11 49.59L132.11 49.59L132.11 49.59Q132.65 48.73 133.22 47.81L133.22 47.81L133.22 47.81Q133.79 46.89 133.92 46.70L133.92 46.70L133.92 46.70Q134.17 46.31 135.07 45.93L135.07 45.93L135.07 45.93Q135.96 45.55 136.40 45.55L136.40 45.55L136.40 45.55Q137.04 45.55 137.04 46.12L137.04 46.12L137.04 46.12Q137.04 46.31 136.43 47.75L136.43 47.75L136.43 47.75Q135.83 49.18 135.00 51.12L135.00 51.12L135.00 51.12Q134.17 53.06 133.48 54.74L133.48 54.74L133.48 54.74Q132.78 56.43 132.58 57.13L132.58 57.13L132.58 57.13Q133.09 56.49 134.24 55.25L134.24 55.25L134.24 55.25Q135.38 54.01 136.85 52.55L136.85 52.55L136.85 52.55Q138.31 51.08 139.84 49.75L139.84 49.75L139.84 49.75Q141.36 48.41 142.60 47.55L142.60 47.55L142.60 47.55Q143.84 46.70 144.54 46.70L144.54 46.70L144.54 46.70Q145.11 46.70 145.27 47.17L145.27 47.17L145.27 47.17Q145.43 47.65 145.43 48.10L145.43 48.10L145.43 48.10Q145.43 49.30 144.89 51.15L144.89 51.15L144.89 51.15Q144.35 52.99 143.65 54.84L143.65 54.84L143.65 54.84Q142.95 56.68 142.44 57.83L142.44 57.83L142.44 57.83Q143.71 56.75 145.21 55.31L145.21 55.31L145.21 55.31Q146.70 53.88 148.10 52.36L148.10 52.36L148.10 52.36Q149.50 50.83 150.39 49.49L150.39 49.49L150.39 49.49Q150.90 48.86 151.60 48.86L151.60 48.86L151.60 48.86Q152.94 48.86 152.94 50.13L152.94 50.13L152.94 50.13Q152.94 50.77 152.49 52.04L152.49 52.04L152.49 52.04Q152.05 53.31 151.47 53.63L151.47 53.63L151.47 53.63Q151.16 54.96 150.90 56.40L150.90 56.40L150.90 56.40Q150.65 57.83 150.65 59.29L150.65 59.29L150.65 59.29Q150.65 59.86 150.77 60.66L150.77 60.66L150.77 60.66Q150.90 61.45 151.28 62.06L151.28 62.06L151.28 62.06Q151.66 62.66 152.43 62.66L152.43 62.66L152.43 62.66Q153.32 62.66 154.27 62.09L154.27 62.09L154.27 62.09Q155.23 61.52 156.12 60.72L156.12 60.72L156.12 60.72Q157.01 59.93 157.64 59.35L157.64 59.35L157.64 59.35Q158.28 58.78 158.47 58.78L158.47 58.78L158.47 58.78Q158.60 58.78 158.60 58.91L158.60 58.91L158.60 58.91Q158.60 59.10 158.47 59.38L158.47 59.38L158.47 59.38Q158.34 59.67 158.22 59.80L158.22 59.80L158.22 59.80Q157.26 61.39 155.32 62.85L155.32 62.85L155.32 62.85Q153.38 64.31 151.41 64.31L151.41 64.31L151.41 64.31Q149.31 64.31 148.48 62.98L148.48 62.98L148.48 62.98Q147.66 61.64 147.66 59.80L147.66 59.80L147.66 59.80Q147.66 57.83 148.26 55.82L148.26 55.82L148.26 55.82Q148.87 53.82 149.50 52.04L149.50 52.04L149.50 52.04Q147.91 54.01 146.07 55.89L146.07 55.89L146.07 55.89Q144.22 57.76 142.38 59.48L142.38 59.48L142.38 59.48Q141.93 60.88 140.69 62.41L140.69 62.41L140.69 62.41Q139.45 63.93 137.80 63.93L137.80 63.93L137.80 63.93Q137.74 63.93 137.51 63.87L137.51 63.87L137.51 63.87Q137.29 63.80 137.29 63.61L137.29 63.61L137.29 63.61Q137.29 63.61 137.29 63.55L137.29 63.55L137.29 63.55Q137.29 63.49 137.35 63.49L137.35 63.49L137.35 63.49Q137.80 62.28 138.53 60.56L138.53 60.56L138.53 60.56Q139.26 58.84 140.06 56.94L140.06 56.94L140.06 56.94Q140.85 55.03 141.39 53.31L141.39 53.31L141.39 53.31Q141.93 51.59 141.93 50.45L141.93 50.45L141.93 50.45Q141.93 50.26 141.90 50.00L141.90 50.00L141.90 50.00Q141.87 49.75 141.55 49.75L141.55 49.75L141.55 49.75Q140.98 49.75 139.93 50.67L139.93 50.67L139.93 50.67Q138.88 51.59 137.61 53.02L137.61 53.02L137.61 53.02Q136.34 54.46 135.10 55.98L135.10 55.98L135.10 55.98Q133.86 57.51 132.90 58.75L132.90 58.75L132.90 58.75Q131.95 59.99 131.63 60.50L131.63 60.50L131.63 60.50Q130.61 61.96 129.79 63.55L129.79 63.55L129.79 63.55Q129.66 63.87 128.99 64.28L128.99 64.28L128.99 64.28Q128.32 64.70 127.59 64.98L127.59 64.98L127.59 64.98Q126.86 65.27 126.48 65.27ZM164.64 43.71L164.64 43.71L164.64 43.71Q164.45 43.71 164.42 43.23L164.42 43.23L164.42 43.23Q164.38 42.75 164.38 42.63L164.38 42.63L164.38 42.63Q164.38 42.44 164.45 41.80L164.45 41.80L164.45 41.80Q164.51 41.16 164.83 41.10L164.83 41.10L164.83 41.10Q165.72 40.97 166.61 40.78L166.61 40.78L166.61 40.78Q167.50 40.59 168.39 40.34L168.39 40.34L168.39 40.34Q168.52 40.27 168.77 40.27L168.77 40.27L168.77 40.27Q169.09 40.27 169.09 40.59L169.09 40.59L169.09 40.59Q169.09 41.29 168.23 42.02L168.23 42.02L168.23 42.02Q167.37 42.75 166.32 43.23L166.32 43.23L166.32 43.23Q165.28 43.71 164.64 43.71ZM159.49 64.31L159.49 64.31L159.49 64.31Q156.37 64.31 156.37 61.13L156.37 61.13L156.37 61.13Q156.37 59.80 156.78 58.40L156.78 58.40L156.78 58.40Q157.20 57.00 157.71 55.79L157.71 55.79L157.71 55.79Q158.28 54.39 158.98 53.06L158.98 53.06L158.98 53.06Q159.68 51.72 160.38 50.39L160.38 50.39L160.38 50.39Q160.70 49.81 160.98 49.21L160.98 49.21L160.98 49.21Q161.27 48.60 161.59 48.03L161.59 48.03L161.59 48.03Q161.90 47.59 162.79 47.27L162.79 47.27L162.79 47.27Q163.69 46.95 164.19 46.95L164.19 46.95L164.19 46.95Q164.26 46.95 164.19 46.98L164.19 46.98L164.19 46.98Q164.13 47.01 164.13 47.01L164.13 47.01L164.13 47.01Q164.13 47.01 164.16 47.01L164.16 47.01L164.16 47.01Q164.19 47.01 164.19 47.08L164.19 47.08L164.19 47.08Q164.32 46.95 164.51 46.95L164.51 46.95L164.51 46.95Q164.77 46.95 164.83 47.17L164.83 47.17L164.83 47.17Q164.89 47.40 164.89 47.59L164.89 47.59L164.89 47.59Q164.89 48.03 164.54 48.92L164.54 48.92L164.54 48.92Q164.19 49.81 163.72 50.61L163.72 50.61L163.72 50.61Q163.24 51.40 162.79 51.59L162.79 51.59L162.79 51.59Q162.22 52.93 161.30 54.52L161.30 54.52L161.30 54.52Q160.38 56.11 159.61 57.73L159.61 57.73L159.61 57.73Q158.85 59.35 158.85 60.88L158.85 60.88L158.85 60.88Q158.85 62.66 160.76 62.66L160.76 62.66L160.76 62.66Q161.65 62.66 162.70 62.09L162.70 62.09L162.70 62.09Q163.75 61.52 164.77 60.72L164.77 60.72L164.77 60.72Q165.78 59.93 166.52 59.35L166.52 59.35L166.52 59.35Q167.25 58.78 167.44 58.78L167.44 58.78L167.44 58.78Q167.50 58.78 167.50 58.81L167.50 58.81L167.50 58.81Q167.50 58.84 167.50 58.84L167.50 58.84L167.50 58.84Q167.50 59.10 167.31 59.38L167.31 59.38L167.31 59.38Q167.12 59.67 166.99 59.80L166.99 59.80L166.99 59.80Q166.23 60.82 164.96 61.86L164.96 61.86L164.96 61.86Q163.69 62.91 162.25 63.61L162.25 63.61L162.25 63.61Q160.82 64.31 159.49 64.31ZM169.85 64.31L169.85 64.31L169.85 64.31Q166.74 64.31 166.74 61.13L166.74 61.13L166.74 61.13Q166.74 59.23 167.66 56.84L167.66 56.84L167.66 56.84Q168.58 54.46 169.82 52.10L169.82 52.10L169.82 52.10Q171.06 49.75 171.89 48.10L171.89 48.10L171.89 48.10Q171.00 48.16 169.82 48.38L169.82 48.38L169.82 48.38Q168.65 48.60 167.82 48.60L167.82 48.60L167.82 48.60Q167.56 48.60 167.34 48.51L167.34 48.51L167.34 48.51Q167.12 48.41 167.12 48.16L167.12 48.16L167.12 48.16Q167.12 47.78 167.50 47.65L167.50 47.65L167.50 47.65Q167.95 47.33 168.42 47.08L168.42 47.08L168.42 47.08Q168.90 46.82 169.35 46.57L169.35 46.57L169.35 46.57Q170.62 45.74 171.79 44.76L171.79 44.76L171.79 44.76Q172.97 43.77 174.05 42.69L174.05 42.69L174.05 42.69Q174.31 42.18 174.53 41.77L174.53 41.77L174.53 41.77Q174.75 41.35 175.39 41.16L175.39 41.16L175.39 41.16Q175.90 41.04 176.85 40.59L176.85 40.59L176.85 40.59Q177.80 40.15 178.25 40.15L178.25 40.15L178.25 40.15Q178.57 40.15 178.57 40.40L178.57 40.40L178.57 40.40Q178.57 40.59 178.15 41.42L178.15 41.42L178.15 41.42Q177.74 42.24 177.17 43.29L177.17 43.29L177.17 43.29Q176.60 44.34 176.12 45.20L176.12 45.20L176.12 45.20Q175.64 46.06 175.51 46.25L175.51 46.25L175.51 46.25Q175.90 46.25 176.88 46.25L176.88 46.25L176.88 46.25Q177.87 46.25 179.01 46.31L179.01 46.31L179.01 46.31Q180.16 46.38 180.98 46.57L180.98 46.57L180.98 46.57Q181.81 46.76 181.81 47.08L181.81 47.08L181.81 47.08Q181.81 47.33 181.46 47.43L181.46 47.43L181.46 47.43Q181.11 47.52 180.73 47.52L180.73 47.52L180.73 47.52Q179.20 47.52 177.71 47.55L177.71 47.55L177.71 47.55Q176.21 47.59 174.75 47.78L174.75 47.78L174.75 47.78Q174.12 48.92 173.26 50.61L173.26 50.61L173.26 50.61Q172.40 52.29 171.54 54.17L171.54 54.17L171.54 54.17Q170.68 56.05 170.11 57.79L170.11 57.79L170.11 57.79Q169.54 59.54 169.54 60.82L169.54 60.82L169.54 60.82Q169.54 61.64 169.89 62.15L169.89 62.15L169.89 62.15Q170.24 62.66 171.13 62.66L171.13 62.66L171.13 62.66Q172.02 62.66 173.10 62.09L173.10 62.09L173.10 62.09Q174.18 61.52 175.16 60.72L175.16 60.72L175.16 60.72Q176.15 59.93 176.88 59.35L176.88 59.35L176.88 59.35Q177.61 58.78 177.80 58.78L177.80 58.78L177.80 58.78Q177.87 58.78 177.87 58.81L177.87 58.81L177.87 58.81Q177.87 58.84 177.87 58.84L177.87 58.84L177.87 58.84Q177.87 59.10 177.71 59.38L177.71 59.38L177.71 59.38Q177.55 59.67 177.42 59.80L177.42 59.80L177.42 59.80Q176.60 60.82 175.32 61.86L175.32 61.86L175.32 61.86Q174.05 62.91 172.62 63.61L172.62 63.61L172.62 63.61Q171.19 64.31 169.85 64.31ZM170.49 46.63L170.49 46.63L170.49 46.63Q171.06 46.51 171.60 46.47L171.60 46.47L171.60 46.47Q172.14 46.44 172.65 46.38L172.65 46.38L172.65 46.38Q172.84 45.93 172.97 45.49L172.97 45.49L172.97 45.49Q173.10 45.04 173.23 44.60L173.23 44.60L173.23 44.60Q172.53 45.04 171.86 45.58L171.86 45.58L171.86 45.58Q171.19 46.12 170.49 46.63Z" fill="#000000"/></svg>