<svg xmlns="http://www.w3.org/2000/svg" width="128" height="96"><path d="M24.64 67.92L16.98 67.92L16.98 67.92Q17.52 66.51 18.56 63.32L18.56 63.32L18.56 63.32Q19.60 60.13 20.91 56.00L20.91 56.00L20.91 56.00Q22.22 51.86 23.57 47.56L23.57 47.56L23.57 47.56Q24.91 43.26 26.05 39.47L26.05 39.47L26.05 39.47Q27.19 35.67 27.97 33.15L27.97 33.15L27.97 33.15Q28.74 30.63 28.81 30.23L28.81 30.23L28.81 30.23Q28.87 29.89 29.48 29.92L29.48 29.92L29.48 29.92Q30.08 29.96 30.29 29.96L30.29 29.96L36.47 29.96L36.47 29.96Q36.60 29.96 36.23 30.46L36.23 30.46L36.23 30.46Q35.86 30.96 35.66 30.96L35.66 30.96L32.84 30.96L32.84 30.96Q32.10 30.96 31.33 30.96L31.33 30.96L31.33 30.96Q30.55 30.96 29.88 31.03L29.88 31.03L29.88 31.03Q29.41 32.58 28.50 35.43L28.50 35.43L28.50 35.43Q27.60 38.29 26.49 41.88L26.49 41.88L26.49 41.88Q25.38 45.48 24.20 49.31L24.20 49.31L24.20 49.31Q23.03 53.14 21.95 56.67L21.95 56.67L21.95 56.67Q20.88 60.20 20.04 62.88L20.04 62.88L20.04 62.88Q19.20 65.57 18.79 66.85L18.79 66.85L25.45 66.85L25.45 66.85Q25.58 66.85 25.21 67.35L25.21 67.35L25.21 67.35Q24.84 67.86 24.64 67.92L24.64 67.92Z" fill="#000000"/><path d="M89.35 73.84L89.35 73.84L89.35 73.84Q87.54 73.84 84.65 72.73L84.65 72.73L84.65 72.73Q81.76 71.62 78.33 69.84L78.33 69.84L78.33 69.84Q74.90 68.06 71.51 66.11L71.51 66.11L71.51 66.11Q68.11 64.16 65.29 62.41L65.29 62.41L65.29 62.41Q62.47 60.67 60.86 59.59L60.86 59.59L60.86 59.59Q60.12 61.20 58.84 63.56L58.84 63.56L58.84 63.56Q57.56 65.91 55.92 68.19L55.92 68.19L55.92 68.19Q54.27 70.48 52.36 72.02L52.36 72.02L52.36 72.02Q50.44 73.57 48.29 73.57L48.29 73.57L48.29 73.57Q46.14 73.57 44.36 71.89L44.36 71.89L44.36 71.89Q42.58 70.21 41.20 67.59L41.20 67.59L41.20 67.59Q39.82 64.97 38.88 61.98L38.88 61.98L38.88 61.98Q37.94 58.99 37.47 56.30L37.47 56.30L37.47 56.30Q37.00 53.61 37.00 51.86L37.00 51.86L37.00 51.86Q37.00 51.60 37.03 50.96L37.03 50.96L37.03 50.96Q37.07 50.32 37.27 49.75L37.27 49.75L37.27 49.75Q37.47 49.18 37.87 49.18L37.87 49.18L37.87 49.18Q38.34 49.18 38.34 49.75L38.34 49.75L38.34 49.75Q38.34 50.32 38.34 50.65L38.34 50.65L38.34 50.65Q38.34 52.47 38.68 54.79L38.68 54.79L38.68 54.79Q39.02 57.11 39.62 59.36L39.62 59.36L39.62 59.36Q40.23 61.61 40.97 63.29L40.97 63.29L40.97 63.29Q41.57 64.56 42.58 66.38L42.58 66.38L42.58 66.38Q43.59 68.19 45.00 69.60L45.00 69.60L45.00 69.60Q46.41 71.02 48.09 71.02L48.09 71.02L48.09 71.02Q49.77 71.02 51.35 69.47L51.35 69.47L51.35 69.47Q52.93 67.92 54.24 65.67L54.24 65.67L54.24 65.67Q55.55 63.42 56.52 61.24L56.52 61.24L56.52 61.24Q57.50 59.05 58.03 57.78L58.03 57.78L58.03 57.78Q56.96 57.11 55.04 55.93L55.04 55.93L55.04 55.93Q53.13 54.75 50.88 53.41L50.88 53.41L50.88 53.41Q48.63 52.07 46.34 50.86L46.34 50.86L46.34 50.86Q44.06 49.65 42.11 48.87L42.11 48.87L42.11 48.87Q40.16 48.10 38.95 48.10L38.95 48.10L38.95 48.10Q37.27 48.10 36.53 49.18L36.53 49.18L36.53 49.18Q35.79 50.25 35.79 51.86L35.79 51.86L35.79 51.86Q35.79 52.80 36.06 53.75L36.06 53.75L36.06 53.75Q36.33 54.69 36.33 55.63L36.33 55.63L36.33 55.63Q36.33 55.76 36.26 56.23L36.26 56.23L36.26 56.23Q36.19 56.70 35.86 56.70L35.86 56.70L35.86 56.70Q35.52 56.70 35.22 55.80L35.22 55.80L35.22 55.80Q34.92 54.89 34.78 53.88L34.78 53.88L34.78 53.88Q34.65 52.87 34.65 52.54L34.65 52.54L34.65 52.54Q34.65 50.72 35.22 49.08L35.22 49.08L35.22 49.08Q35.79 47.43 37.07 46.35L37.07 46.35L37.07 46.35Q38.34 45.28 40.29 45.28L40.29 45.28L40.29 45.28Q42.24 45.28 44.80 46.39L44.80 46.39L44.80 46.39Q47.35 47.50 50.04 49.14L50.04 49.14L50.04 49.14Q52.73 50.79 55.08 52.47L55.08 52.47L55.08 52.47Q57.43 54.15 59.04 55.29L59.04 55.29L59.04 55.29Q59.92 53.14 61.19 49.88L61.19 49.88L61.19 49.88Q62.47 46.62 64.15 42.89L64.15 42.89L64.15 42.89Q65.83 39.16 67.85 35.50L67.85 35.50L67.85 35.50Q69.86 31.84 72.21 28.81L72.21 28.81L72.21 28.81Q74.57 25.79 77.19 23.98L77.19 23.98L77.19 23.98Q79.81 22.16 82.63 22.16L82.63 22.16L82.63 22.16Q84.38 22.16 85.45 23.07L85.45 23.07L85.45 23.07Q86.53 23.98 87.06 25.52L87.06 25.52L87.06 25.52Q87.13 25.72 87.17 25.92L87.17 25.92L87.17 25.92Q87.20 26.13 87.20 26.33L87.20 26.33L87.20 26.33Q87.20 27.40 86.63 28.51L86.63 28.51L86.63 28.51Q86.06 29.62 85.32 30.36L85.32 30.36L85.32 30.36Q85.25 30.43 84.98 30.66L84.98 30.66L84.98 30.66Q84.71 30.90 84.58 30.90L84.58 30.90L84.58 30.90Q84.38 30.90 84.38 30.63L84.38 30.63L84.38 30.63Q84.38 30.09 84.58 29.59L84.58 29.59L84.58 29.59Q84.78 29.08 84.78 28.55L84.78 28.55L84.78 28.55Q84.78 26.80 83.70 25.35L83.70 25.35L83.70 25.35Q82.63 23.91 80.75 23.91L80.75 23.91L80.75 23.91Q80.28 23.91 79.77 24.04L79.77 24.04L79.77 24.04Q79.27 24.18 78.80 24.38L78.80 24.38L78.80 24.38Q77.25 25.12 75.71 27.13L75.71 27.13L75.71 27.13Q74.16 29.15 72.72 31.87L72.72 31.87L72.72 31.87Q71.27 34.59 70.00 37.45L70.00 37.45L70.00 37.45Q68.72 40.31 67.71 42.79L67.71 42.79L67.71 42.79Q66.70 45.28 66.10 46.82L66.10 46.82L66.10 46.82Q65.02 49.44 64.02 52.07L64.02 52.07L64.02 52.07Q63.01 54.69 61.86 57.31L61.86 57.31L61.86 57.31Q65.16 59.66 69.22 62.48L69.22 62.48L69.22 62.48Q73.29 65.30 77.59 67.62L77.59 67.62L77.59 67.62Q81.89 69.94 85.86 70.88L85.86 70.88L85.86 70.88Q86.66 71.08 87.54 71.08L87.54 71.08L87.54 71.08Q88.21 71.08 88.64 70.81L88.64 70.81L88.64 70.81Q89.08 70.55 89.08 69.81L89.08 69.81L89.08 69.81Q89.08 69 88.68 68.06L88.68 68.06L88.68 68.06Q88.27 67.12 87.84 66.35L87.84 66.35L87.84 66.35Q87.40 65.57 87.40 65.44L87.40 65.44L87.40 65.44Q87.40 65.17 87.60 65.17L87.60 65.17L87.60 65.17Q87.94 65.17 88.54 66.01L88.54 66.01L88.54 66.01Q89.15 66.85 89.82 68.06L89.82 68.06L89.82 68.06Q90.49 69.27 90.93 70.41L90.93 70.41L90.93 70.41Q91.37 71.55 91.37 72.16L91.37 72.16L91.37 72.16Q91.37 73.03 90.79 73.44L90.79 73.44L90.79 73.44Q90.22 73.84 89.35 73.84Z" fill="#000000"/><path d="M108.46 67.92L100.40 67.92L100.40 67.86L100.40 67.86Q100.40 67.72 100.73 67.29L100.73 67.29L100.73 67.29Q101.07 66.85 101.27 66.85L101.27 66.85L107.39 66.85L107.39 66.85Q107.79 65.57 108.66 62.88L108.66 62.88L108.66 62.88Q109.54 60.20 110.68 56.67L110.68 56.67L110.68 56.67Q111.82 53.14 113.06 49.31L113.06 49.31L113.06 49.31Q114.31 45.48 115.48 41.88L115.48 41.88L115.48 41.88Q116.66 38.29 117.57 35.43L117.57 35.43L117.57 35.43Q118.47 32.58 118.94 31.03L118.94 31.03L118.94 31.03Q118.27 30.96 117.47 30.96L117.47 30.96L117.47 30.96Q116.66 30.96 115.79 30.96L115.79 30.96L112.70 30.96L112.70 30.96Q112.56 30.96 112.96 30.46L112.96 30.46L112.96 30.46Q113.37 29.96 113.57 29.96L113.57 29.96L119.82 29.96L119.82 29.96Q120.62 29.96 120.56 30.23L120.56 30.23L120.56 30.23Q120.36 30.63 119.52 33.15L119.52 33.15L119.52 33.15Q118.68 35.67 117.43 39.47L117.43 39.47L117.43 39.47Q116.19 43.26 114.81 47.56L114.81 47.56L114.81 47.56Q113.43 51.86 112.12 56.00L112.12 56.00L112.12 56.00Q110.81 60.13 109.84 63.32L109.84 63.32L109.84 63.32Q108.86 66.51 108.46 67.92L108.46 67.92Z" fill="#000000"/></svg>